<svg xmlns="http://www.w3.org/2000/svg" viewBox="0 0 120 120" fill="none" stroke="#e0344a" stroke-width="0.7">
  <circle cx="60" cy="60" r="57" stroke-opacity="0.9" />
  <circle cx="60" cy="60" r="52" stroke-opacity="0.5" stroke-dasharray="1.5 3" />
  <circle cx="60" cy="60" r="34" stroke-opacity="0.7" />
  <circle cx="60" cy="60" r="16" stroke-opacity="0.5" />
  <!-- гексаграмма -->
  <path d="M60 9 L104 85 L16 85 Z" stroke-opacity="0.8" />
  <path d="M60 111 L16 35 L104 35 Z" stroke-opacity="0.8" />
  <!-- лучи-тики по кругу -->
  <g stroke-opacity="0.6">
    <path d="M60 3 V12" />
    <path d="M60 108 V117" />
    <path d="M3 60 H12" />
    <path d="M108 60 H117" />
    <path d="M20 20 L26 26" />
    <path d="M100 20 L94 26" />
    <path d="M20 100 L26 94" />
    <path d="M100 100 L94 94" />
  </g>
  <!-- глифы-узлы на вершинах гексаграммы -->
  <g fill="#e0344a" stroke="none" fill-opacity="0.7">
    <circle cx="60" cy="9" r="2" />
    <circle cx="104" cy="85" r="2" />
    <circle cx="16" cy="85" r="2" />
    <circle cx="60" cy="111" r="2" />
    <circle cx="16" cy="35" r="2" />
    <circle cx="104" cy="35" r="2" />
  </g>
</svg>
